PathFileType	4	(X/Y/Z)	22_coords_data.trc
DataRate	CameraRate	NumFrames	NumMarkers	Units	OrigDataRate	OrigDataStartFrame	OrigNumFrames
30.0	30.0	7	21	m	30.0	32	63
Frame#	Time	THUMB_TIP	THUMB_IP	THUMB_MCP	THUMB_CMC	INDEX_TIP	INDEX_DIP	INDEX_PIP	INDEX_MCP	MIDDLE_TIP	MIDDLE_DIP	MIDDLE_PIP	MIDDLE_MCP	RING_TIP	RING_DIP	RING_PIP	RING_MCP	PINKY_TIP	PINKY_DIP	PINKY_PIP	PINKY_MCP	WRIST
X1	Y1	Z1	X2	Y2	Z2	X3	Y3	Z3	X4	Y4	Z4	X5	Y5	Z5	X6	Y6	Z6	X7	Y7	Z7	X8	Y8	Z8	X9	Y9	Z9	X10	Y10	Z10	X11	Y11	Z11	X12	Y12	Z12	X13	Y13	Z13	X14	Y14	Z14	X15	Y15	Z15	X16	Y16	Z16	X17	Y17	Z17	X18	Y18	Z18	X19	Y19	Z19	X20	Y20	Z20	X21	Y21	Z21
30	1.0333333333333288	0.5356889768425176	-0.019265140701441752	-0.14849600236867608	0.5170952997925642	-0.015015604364148949	-0.13568129930227357	0.4940259273878107	-0.012247341866426842	-0.11496993093621669	0.47225297623874263	-0.026267445243788823	-0.07864823907655277	0.5562678595914448	-0.032983924701278367	-0.17009750465876528	0.554198296531795	-0.02285355820887408	-0.15522832231837724	0.551034809505574	-0.009322185093561863	-0.13427828354874397	0.5275972414654112	0.0008464870988091899	-0.10020608661037722	0.5466023582052473	-0.0489768644060703	-0.14836934322931172	0.5581540830538947	-0.03865511393857873	-0.13898749264917676	0.5657169512401389	-0.02147339287531541	-0.11669397260182415	0.5363707280713618	-0.012265198651527087	-0.08428785796484045	0.5546815977869153	-0.0589071655327118	-0.13524336411270557	0.5636893772891303	-0.05036939390801465	-0.12216795344519721	0.5679213555779353	-0.0379306853586841	-0.10101260262352807	0.5389839979204898	-0.029689233987215402	-0.0740046659178707	0.5847404803409441	-0.07116902381804102	-0.10922129673556752	0.5742637140340907	-0.06521236556339555	-0.09706582100695266	0.5608401718711028	-0.056945018584495855	-0.08319962078017962	0.5310708268504134	-0.04597751830611252	-0.06604201355531225	0.4622830810018608	-0.023011742144276925	-0.051989820119430985
31	1.0666666666666622	0.536063038898103	-0.015630965877257375	-0.14947230906814885	0.5183044594210734	-0.012599429381886296	-0.13520897700879966	0.4957022026708865	-0.010285220138664342	-0.1139345222478142	0.47232270228427475	-0.024662599464318702	-0.07876948385172161	0.5460027455657609	-0.04118096268991811	-0.17188817111700921	0.5479402466060729	-0.030943835014754395	-0.15707441714709366	0.5494610668853925	-0.017524942755360207	-0.13586993014059476	0.5295854227898568	-0.005474742151958756	-0.1001853742206259	0.538618556880534	-0.05334975494633559	-0.15520655617834175	0.5513498475456987	-0.04554392376145977	-0.14496042337067663	0.5615487523165474	-0.032030770898352934	-0.121237299816358	0.5363442198713719	-0.02102145566607666	-0.08602828899048459	0.5466739301550848	-0.06515302111289717	-0.14254999782454517	0.5564811726314363	-0.05897622418672349	-0.1287418417295823	0.5622833147341896	-0.04926537854735602	-0.10655593171922129	0.5366623807456932	-0.0388825709450793	-0.07705193399262128	0.5733284323149817	-0.08433517553767522	-0.11774820128695115	0.5648770995498165	-0.07745854656856876	-0.10454642305393674	0.5537526220575111	-0.0681505042552083	-0.08936688525412612	0.5268143308238463	-0.05421037555582786	-0.06985061695675487	0.4622830810018608	-0.023011742144276925	-0.051989820119430985
32	1.0999999999999952	0.5372781770752287	-0.011939225690617894	-0.1492308840428907	0.520081759465175	-0.010204413335114682	-0.1340890992249828	0.497693580634356	-0.008376435405331117	-0.1125426854786655	0.4724656119742663	-0.02295721305806836	-0.078766354708036	0.5347459625878701	-0.0461640244139096	-0.17354234843778188	0.5405755586903728	-0.03695317001917264	-0.15907943135302194	0.546590269693822	-0.02483054432598608	-0.13789276028728154	0.5307036253385664	-0.011963360683322488	-0.10053387633398875	0.5284837131066189	-0.05630276400081957	-0.16091934569483288	0.5423673004704836	-0.05148888436363708	-0.15033291264358017	0.5552828985843996	-0.04200990215035877	-0.1259865418347683	0.5350735558208908	-0.02957733804889029	-0.08812941917693945	0.5362761503523354	-0.07006673044698125	-0.14925664616689413	0.5469602137157887	-0.0665677215142294	-0.13516382081020142	0.5545790684665555	-0.05982488074004566	-0.11243350779914224	0.5329219485365442	-0.0476683587665413	-0.08052882218958307	0.5598996675117797	-0.09511853284854538	-0.12658431177155027	0.5534705816041037	-0.08780478287718674	-0.1125068149859646	0.5446895919321078	-0.07797163482262076	-0.09616620793734831	0.5211432469238224	-0.061727308990786045	-0.07419861894765745	0.4622830810018608	-0.023011742144276925	-0.051989820119430985
33	1.1333333333333284	0.5390701539819114	-0.008479988360522717	-0.1480055045486668	0.5221557687158321	-0.008064097681116711	-0.13245781642427282	0.4997110709753826	-0.0066979145893116265	-0.11093598827005868	0.47263408495446935	-0.021336455297019497	-0.07864914955871904	0.5240251453122899	-0.04912035832232192	-0.17475173291151574	0.5329843253588161	-0.04161855854410085	-0.1609149669244287	0.5427253462117636	-0.03149024650703908	-0.1400693524930344	0.5308648289311853	-0.018355559527046983	-0.10133378457703851	0.5171459277210162	-0.058329747340993054	-0.16472527845960908	0.5319492187423717	-0.056640355359781625	-0.15442923408951834	0.5474770130684352	-0.051087210194618426	-0.13039884224622758	0.5326754124081139	-0.037541809949162286	-0.09047913945321101	0.5242167989738991	-0.07378490199092697	-0.15451427803724588	0.5357587742239127	-0.07302608542043731	-0.1406865159355742	0.5453509476446656	-0.0690810902035694	-0.11804568554432993	0.5280070038203583	-0.055586060053797126	-0.08410761535941791	0.545341188530627	-0.10329968351214391	-0.13488996389670213	0.5407698996682454	-0.09592468607224275	-0.12013487220270994	0.534248103750391	-0.08597848324283286	-0.10283310216949959	0.514418664224296	-0.06806743674101862	-0.07860767766773308	0.462283081001861	-0.023011742144276925	-0.051989820119430985
34	1.1666666666666616	0.5413239416813234	-0.005467898996542764	-0.14594615930209331	0.5243890342849321	-0.006333961996835447	-0.1304394237863512	0.5016103213237015	-0.0053435589317424315	-0.10925052722238354	0.47278893389763166	-0.019863532123093053	-0.07845461831618555	0.5146715045244359	-0.05063805916030034	-0.17574693855777818	0.5257997318897817	-0.045103821656352294	-0.1625736788641767	0.5382694133183415	-0.03726349769403947	-0.14220099621715612	0.5301898616021863	-0.024268772237220515	-0.10245814719537771	0.5062744906482641	-0.0596801060488536	-0.16687549600946386	0.5216338971801777	-0.06073295467684342	-0.15733714495941595	0.5391961047161834	-0.05853986570031322	-0.13418182640830784	0.5294544637631594	-0.044512522552253575	-0.09289645373530231	0.5117272828908205	-0.07650139621624152	-0.15815121639512378	0.5239903881973847	-0.07821767057256407	-0.14504890169221935	0.5354489393621984	-0.07655859443083224	-0.12300056727532321	0.5223939374967084	-0.062201840085831295	-0.08752985590707807	0.5308276269295	-0.10891879561541501	-0.14200259726324474	0.5278681182621752	-0.10172036466960732	-0.1267571421907824	0.5233740288928612	-0.09192118759063544	-0.10874072444708066	0.5072915158583163	-0.07292998636409359	-0.08263381920217094	0.462283081001861	-0.023011742144276925	-0.051989820119430985
35	1.1999999999999948	0.543648506004946	-0.0031567591780580218	-0.1435542310064049	0.5264217769227847	-0.005078388780338172	-0.12846956512341426	0.5032252591847729	-0.004385090856205254	-0.1077268337984778	0.47293734665081855	-0.01856987943049232	-0.07820863386287358	0.5070606423324918	-0.05069213100962072	-0.17714300443436146	0.519449662510401	-0.04717101791085354	-0.1644106071118991	0.5336340709457643	-0.04174427615156345	-0.14437656447900107	0.5288003719962638	-0.029434888858121455	-0.1038950818860222	0.4974874594401131	-0.06080153378539932	-0.16942200656160905	0.5127274031497943	-0.06363284359280885	-0.16005569456060162	0.5311735179427031	-0.0640789528618792	-0.13749574363940315	0.5257264291995816	-0.05023028567642307	-0.09536865541328632	0.5015199411449802	-0.0783460898029682	-0.16180883628319231	0.5136906880417316	-0.08165515379213234	-0.14892772548129185	0.5259046606849177	-0.08193200716991939	-0.12722698347833927	0.5166483443745211	-0.06725705684072564	-0.09070730008434491	0.5175560846490267	-0.11223134525062256	-0.14780253035396318	0.515751617990822	-0.10529680273259523	-0.1322572410306634	0.5129911345210678	-0.0957853151137516	-0.11374445211894624	0.5004590364861498	-0.07623169345487518	-0.08614941905383228	0.4622830810018609	-0.023011742144276925	-0.051989820119430985
36	1.233333333333328	0.5457065298880173	-0.0020180866859492164	-0.1413961095708699	0.5280089877987595	-0.004612986252325146	-0.12697170316230758	0.5044467310794596	-0.0040565379073067565	-0.10664117381521154	0.4730536628682659	-0.01755704828265353	-0.07796886159780414	0.501328939810456	-0.050084468672903004	-0.1791578918697166	0.5141984516505314	-0.04834881065315738	-0.16653397978840637	0.5291534018003483	-0.045151722317457677	-0.1465805859620363	0.5268641278484333	-0.033931166169553106	-0.10556236515097717	0.49055013746590515	-0.06159931788309708	-0.17225696098451382	0.5053939660461929	-0.06559533287579472	-0.16268133477746244	0.5239926690233407	-0.06800759034603349	-0.14037261873495754	0.5218264382988903	-0.054745393844395585	-0.09776311851023778	0.4930917108080801	-0.07963081756224355	-0.16510147344780962	0.5049305931770754	-0.08396033864752928	-0.15221364541415094	0.5173514621408186	-0.08558371387551306	-0.13069001546809644	0.5112069499973392	-0.07090637139201211	-0.09352092317166477	0.5062219708705123	-0.11405054713030394	-0.15215819336785177	0.5053126897536512	-0.10731214646067355	-0.13644936896033982	0.5038331108697236	-0.0980629905661135	-0.11765905282238298	0.49434112437159805	-0.07831545494555858	-0.08900908807136937	0.4622830810018609	-0.023011742144276925	-0.051989820119430985
